<mxfile host="app.diagrams.net" modified="2020-03-30T15:33:30.144Z" agent="5.0 (Macintosh; Intel Mac OS X 10_15_3) AppleWebKit/537.36 (KHTML, like Gecko) Chrome/80.0.3987.149 Safari/537.36" etag="EEqdHSbqb5T5FgidXRlV" version="12.9.5" type="github">
  <diagram id="SnmHH2Q27aT16bSliVqN" name="Page-1">
    <mxGraphModel dx="900" dy="623" grid="1" gridSize="10" guides="1" tooltips="1" connect="1" arrows="1" fold="1" page="1" pageScale="1" pageWidth="850" pageHeight="1100" math="0" shadow="0">
      <root>
        <mxCell id="0" />
        <mxCell id="1" parent="0" />
        <mxCell id="NngGjCqE5jx-abHb4Hr3-1" value="" style="rounded=0;whiteSpace=wrap;html=1;" vertex="1" parent="1">
          <mxGeometry x="150" y="140" width="550" height="680" as="geometry" />
        </mxCell>
        <mxCell id="NngGjCqE5jx-abHb4Hr3-11" style="edgeStyle=none;rounded=0;orthogonalLoop=1;jettySize=auto;html=1;entryX=0;entryY=0.5;entryDx=0;entryDy=0;endArrow=none;endFill=0;" edge="1" parent="1" source="NngGjCqE5jx-abHb4Hr3-2" target="NngGjCqE5jx-abHb4Hr3-4">
          <mxGeometry relative="1" as="geometry" />
        </mxCell>
        <mxCell id="NngGjCqE5jx-abHb4Hr3-12" style="edgeStyle=none;rounded=0;orthogonalLoop=1;jettySize=auto;html=1;entryX=0;entryY=0.5;entryDx=0;entryDy=0;endArrow=none;endFill=0;" edge="1" parent="1" source="NngGjCqE5jx-abHb4Hr3-2" target="NngGjCqE5jx-abHb4Hr3-8">
          <mxGeometry relative="1" as="geometry" />
        </mxCell>
        <mxCell id="NngGjCqE5jx-abHb4Hr3-13" style="edgeStyle=none;rounded=0;orthogonalLoop=1;jettySize=auto;html=1;entryX=0;entryY=0.5;entryDx=0;entryDy=0;endArrow=none;endFill=0;" edge="1" parent="1" source="NngGjCqE5jx-abHb4Hr3-2" target="NngGjCqE5jx-abHb4Hr3-9">
          <mxGeometry relative="1" as="geometry" />
        </mxCell>
        <mxCell id="NngGjCqE5jx-abHb4Hr3-14" style="edgeStyle=none;rounded=0;orthogonalLoop=1;jettySize=auto;html=1;entryX=0;entryY=0.5;entryDx=0;entryDy=0;endArrow=none;endFill=0;" edge="1" parent="1" source="NngGjCqE5jx-abHb4Hr3-2" target="NngGjCqE5jx-abHb4Hr3-10">
          <mxGeometry relative="1" as="geometry" />
        </mxCell>
        <mxCell id="NngGjCqE5jx-abHb4Hr3-2" value="User" style="shape=umlActor;verticalLabelPosition=bottom;labelBackgroundColor=#ffffff;verticalAlign=top;html=1;outlineConnect=0;" vertex="1" parent="1">
          <mxGeometry x="50" y="230" width="30" height="60" as="geometry" />
        </mxCell>
        <mxCell id="NngGjCqE5jx-abHb4Hr3-6" style="rounded=0;orthogonalLoop=1;jettySize=auto;html=1;endArrow=none;endFill=0;" edge="1" parent="1" source="NngGjCqE5jx-abHb4Hr3-4" target="NngGjCqE5jx-abHb4Hr3-5">
          <mxGeometry relative="1" as="geometry" />
        </mxCell>
        <mxCell id="NngGjCqE5jx-abHb4Hr3-4" value="Sharing data dari aplikasi" style="ellipse;whiteSpace=wrap;html=1;" vertex="1" parent="1">
          <mxGeometry x="230" y="280" width="210" height="60" as="geometry" />
        </mxCell>
        <mxCell id="NngGjCqE5jx-abHb4Hr3-5" value="Customise sharing info" style="ellipse;whiteSpace=wrap;html=1;" vertex="1" parent="1">
          <mxGeometry x="490" y="210" width="190" height="60" as="geometry" />
        </mxCell>
        <mxCell id="NngGjCqE5jx-abHb4Hr3-7" value="&amp;lt;&amp;lt;extends&amp;gt;&amp;gt;" style="text;html=1;align=center;verticalAlign=middle;resizable=0;points=[];autosize=1;rotation=-15;" vertex="1" parent="1">
          <mxGeometry x="410" y="260" width="90" height="20" as="geometry" />
        </mxCell>
        <mxCell id="NngGjCqE5jx-abHb4Hr3-8" value="Exp points" style="ellipse;whiteSpace=wrap;html=1;" vertex="1" parent="1">
          <mxGeometry x="250" y="360" width="210" height="60" as="geometry" />
        </mxCell>
        <mxCell id="NngGjCqE5jx-abHb4Hr3-9" value="IG filter" style="ellipse;whiteSpace=wrap;html=1;" vertex="1" parent="1">
          <mxGeometry x="250" y="440" width="210" height="60" as="geometry" />
        </mxCell>
        <mxCell id="NngGjCqE5jx-abHb4Hr3-10" value="Whatsapp sticker" style="ellipse;whiteSpace=wrap;html=1;" vertex="1" parent="1">
          <mxGeometry x="260" y="520" width="210" height="60" as="geometry" />
        </mxCell>
        <mxCell id="NngGjCqE5jx-abHb4Hr3-15" value="&lt;b&gt;VIRALITY&lt;/b&gt;" style="text;html=1;align=center;verticalAlign=middle;resizable=0;points=[];autosize=1;" vertex="1" parent="1">
          <mxGeometry x="390" y="160" width="70" height="20" as="geometry" />
        </mxCell>
      </root>
    </mxGraphModel>
  </diagram>
</mxfile>
